<svg xmlns="http://www.w3.org/2000/svg" width="32" height="32" viewBox="0 0 32 32"><path fill="#9333ea" d="M29 0H3C1.343 0 0 1.343 0 3v26c0 1.657 1.343 3 3 3h26c1.657 0 3-1.343 3-3V3c0-1.657-1.343-3-3-3zM9.339 27.339H5.67V12.67h3.669v14.669zM7.504 11.339a2.004 2.004 0 1 1 0-4.008 2.004 2.004 0 0 1 0 4.008zm19.835 16H23.67v-7.339c0-1.75-.031-4-2.438-4-2.438 0-2.812 1.904-2.812 3.872v7.467h-3.669V12.67h3.522v2.001h.05c.491-.931 1.688-1.913 3.478-1.913 3.722 0 4.406 2.448 4.406 5.633v8.948z"/></svg>