<svg xmlns="http://www.w3.org/2000/svg" width="32" height="32" viewBox="0 0 32 32"><path fill="#2563eb" d="M32 6.076a13.14 13.14 0 0 1-3.769 1.031A6.601 6.601 0 0 0 31.115 4.1a13.195 13.195 0 0 1-4.169 1.594A6.563 6.563 0 0 0 22.155 2c-3.626 0-6.563 2.938-6.563 6.563 0 .514.058 1.016.17 1.496C10.304 9.87 5.466 7.6 2.228 4.149a6.52 6.52 0 0 0-.888 3.3c0 2.277 1.159 4.287 2.924 5.463a6.533 6.533 0 0 1-2.975-.822v.083c0 3.183 2.263 5.841 5.267 6.445a6.574 6.574 0 0 1-2.968.112c.837 2.613 3.266 4.513 6.146 4.563A13.172 13.172 0 0 1 0 27.025a18.575 18.575 0 0 0 10.063 2.949c12.072 0 18.684-10.004 18.684-18.684 0-.285-.007-.568-.02-.85A13.348 13.348 0 0 0 32 6.076z"/></svg>